<mxfile host="app.diagrams.net" modified="2025-10-09T02:44:50.338466Z" agent="salud-hoy-repo" version="20.8.20">
  <diagram id="D1" name="ERD">
    <mxGraphModel dx="1280" dy="720" grid="1" gridSize="10" guides="1" tooltips="1" connect="1" arrows="1" fold="1" page="1" pageScale="1" pageWidth="1600" pageHeight="900" math="0" shadow="0">
      <root>
        <mxCell id="0"/><mxCell id="1" parent="0"/>
        <mxCell id="u1" value="USER_PROFILE&#xa;id PK&#xa;name&#xa;goal&#xa;created_at" style="shape=swimlane;rounded=1;html=1;whiteSpace=wrap;collapsible=0;horizontal=1;fillColor=#dae8fc;strokeColor=#6c8ebf;" vertex="1" parent="1"><mxGeometry x="80" y="80" width="220" height="140" as="geometry"/></mxCell>
        <mxCell id="h1" value="HABIT&#xa;key PK&#xa;title&#xa;is_active (0/1)" style="shape=swimlane;rounded=1;html=1;whiteSpace=wrap;collapsible=0;horizontal=1;fillColor=#d5e8d4;strokeColor=#82b366;" vertex="1" parent="1"><mxGeometry x="420" y="80" width="220" height="120" as="geometry"/></mxCell>
        <mxCell id="d1" value="DAY&#xa;day_date PK" style="shape=swimlane;rounded=1;html=1;whiteSpace=wrap;collapsible=0;horizontal=1;fillColor=#ffe6cc;strokeColor=#d79b00;" vertex="1" parent="1"><mxGeometry x="80" y="300" width="220" height="90" as="geometry"/></mxCell>
        <mxCell id="dh1" value="DAY_HABIT&#xa;day_date FK&#xa;habit_key FK&#xa;done (0/1)&#xa;PK(day_date,habit_key)" style="shape=swimlane;rounded=1;html=1;whiteSpace=wrap;collapsible=0;horizontal=1;fillColor=#f8cecc;strokeColor=#b85450;" vertex="1" parent="1"><mxGeometry x="420" y="300" width="260" height="130" as="geometry"/></mxCell>
        <mxCell id="e1" edge="1" parent="1" source="u1" target="d1" style="endArrow=block;strokeColor=#000000;"/>
        <mxCell id="e2" edge="1" parent="1" source="d1" target="dh1" style="endArrow=block;strokeColor=#000000;"/>
        <mxCell id="e3" edge="1" parent="1" source="h1" target="dh1" style="endArrow=block;strokeColor=#000000;"/>
      </root>
    </mxGraphModel>
  </diagram>
</mxfile>
